<?xml version="1.0"?>
<svg xmlns="http://www.w3.org/2000/svg" id="Layer_1" data-name="Layer 1" viewBox="0 0 512 512" width="512" height="512"><title>Exchange Rates</title><path d="M256,172.714A83.286,83.286,0,1,0,339.286,256,83.38,83.38,0,0,0,256,172.714Zm17.4,58.851,10.412.158a6.08,6.08,0,0,1,5.935,6.156,6.161,6.161,0,0,1-6,6.121h-.066l-10.409-.3a29.065,29.065,0,0,1-8.289,14.807,29.532,29.532,0,0,1-21.173,8.5l-.8-.008,28.435,27.455a6.006,6.006,0,0,1-8.335,8.65L223.83,265.2A5.916,5.916,0,0,1,228,255h16.138a17.82,17.82,0,0,0,16.681-11.625l-32.628-.343a6,6,0,0,1,.129-12l32.628.343a17.839,17.839,0,0,0-16.622-12l-15.88-.2A6.085,6.085,0,0,1,228.506,207h.066l15.88.305,39.615.56A6.068,6.068,0,0,1,284,220h-.066l-15.725-.236A29.406,29.406,0,0,1,273.4,231.565Z"/><path d="M163.369,163.321a6.6,6.6,0,0,1,.536-.487c3.1-3.071,6.36-5.834,9.755-8.834H83.451C80.137,154,77,151.507,77,148.194V130.035L18.035,189,77,247.965V229.806c0-3.313,3.137-5.806,6.451-5.806h45.556a131.282,131.282,0,0,1,33.924-60.022A7.651,7.651,0,0,1,163.369,163.321Z"/><path d="M435,282.194c0,3.313-3.137,5.806-6.451,5.806H382.993a131.282,131.282,0,0,1-33.924,60.022,7.651,7.651,0,0,1-.438.657,6.6,6.6,0,0,1-.536.487c-3.1,3.071-6.36,5.834-9.755,8.834h90.209c3.314,0,6.451,2.493,6.451,5.806v18.159L493.965,323,435,264.035Z"/><path d="M330.962,330.962a6,6,0,0,1,8.486,0l4.793,4.793A118.533,118.533,0,0,0,374.849,262h-6.836a6,6,0,1,1,0-12h6.836a118.533,118.533,0,0,0-30.608-73.755l-4.793,4.793a6,6,0,1,1-8.486-8.486l4.793-4.793A118.533,118.533,0,0,0,262,137.151v6.836a6,6,0,0,1-12,0v-6.836a118.533,118.533,0,0,0-73.755,30.608l4.793,4.793a6,6,0,0,1-8.486,8.486l-4.793-4.793A118.533,118.533,0,0,0,137.151,250h6.836a6,6,0,0,1,0,12h-6.836a118.533,118.533,0,0,0,30.608,73.755l4.793-4.793a6,6,0,1,1,8.486,8.486l-4.793,4.793A118.533,118.533,0,0,0,250,374.849v-6.836a6,6,0,1,1,12,0v6.836a118.533,118.533,0,0,0,73.755-30.608l-4.793-4.793A6,6,0,0,1,330.962,330.962ZM256,351.286A95.286,95.286,0,1,1,351.286,256,95.394,95.394,0,0,1,256,351.286Z"/></svg>
